# This file uses centimeters as units for non-parametric coordinates.

mtllib 3dMousePosition.mtl
g default
v 1.000000 2.000000 -0.153948
v -1.000000 2.000000 -0.153948
v -0.000000 0.000000 -0.153948
v 1.000000 2.000000 0.158473
v -0.000000 0.000000 0.158473
v -1.000000 2.000000 0.158473
v 0.333334 2.000000 -0.153948
v 0.333334 2.000000 0.158473
v -0.333333 2.000000 -0.153948
v -0.333333 2.000000 0.158473
v 0.333333 3.977841 -0.153947
v 0.333333 3.977841 0.158473
v -0.333334 3.977841 -0.153947
v -0.333334 3.977841 0.158473
vt 0.000000 0.000000
vt 1.000000 0.000000
vt 1.000000 1.000000
vt 0.000000 1.000000
vt 0.000000 0.000000
vt 1.000000 0.000000
vt 1.000000 1.000000
vt 0.000000 1.000000
vt 0.666667 0.000000
vt 0.666667 1.000000
vt 0.333333 0.000000
vt 0.333333 1.000000
vt 0.666667 1.000000
vt 0.666667 0.000000
vt 0.333333 0.000000
vt 0.333333 1.000000
vn 0.894427 -0.447214 0.000000
vn 0.894427 -0.447214 0.000000
vn 0.894427 -0.447214 0.000000
vn 0.894427 -0.447214 0.000000
vn -0.894427 -0.447214 0.000000
vn -0.894427 -0.447214 0.000000
vn -0.894427 -0.447214 0.000000
vn -0.894427 -0.447214 0.000000
vn 0.000000 1.000000 0.000000
vn 0.000000 1.000000 0.000000
vn 0.000000 1.000000 0.000000
vn 0.000000 1.000000 0.000000
vn 0.000000 1.000000 0.000000
vn 0.000000 1.000000 0.000000
vn 0.000000 1.000000 0.000000
vn 0.000000 1.000000 0.000000
vn 0.000000 1.000000 0.000000
vn 0.000000 1.000000 0.000000
vn 0.000000 1.000000 0.000000
vn 0.000000 1.000000 0.000000
vn -0.000000 0.000000 -1.000000
vn -0.000000 0.000000 -1.000000
vn -0.000000 0.000000 -1.000000
vn -0.000000 0.000000 -1.000000
vn -0.000000 0.000000 -1.000000
vn 0.000000 0.000000 1.000000
vn 0.000000 0.000000 1.000000
vn 0.000000 -0.000000 1.000000
vn 0.000000 -0.000000 1.000000
vn 0.000000 0.000000 1.000000
vn 1.000000 0.000000 0.000000
vn 1.000000 0.000000 0.000000
vn 1.000000 0.000000 0.000000
vn 1.000000 0.000000 0.000000
vn 0.000000 0.000000 -1.000000
vn 0.000000 0.000000 -1.000000
vn -1.000000 -0.000000 0.000000
vn -1.000000 -0.000000 0.000000
vn -1.000000 -0.000000 0.000000
vn -1.000000 -0.000000 0.000000
vn 0.000000 -0.000000 1.000000
vn 0.000000 -0.000000 1.000000
s off
g pCone1
usemtl initialShadingGroup
f 3/1/1 1/2/2 4/3/3 5/4/4
f 2/5/5 3/6/6 5/7/7 6/8/8
f 4/3/9 1/2/10 7/9/11 8/10/12
f 12/13/13 11/14/14 13/15/15 14/16/16
f 10/12/17 9/11/18 2/5/19 6/8/20
s 1
f 3/6/21 2/5/22 9/11/23 7/9/24 1/2/25
s 2
f 5/4/26 4/3/27 8/10/28 10/12/29 6/8/30
s off
f 8/10/31 7/9/32 11/14/33 12/13/34
s 1
f 7/9/24 9/11/23 13/15/35 11/14/36
s off
f 9/11/37 10/12/38 14/16/39 13/15/40
s 2
f 10/12/29 8/10/28 12/13/41 14/16/42
